<mxfile host="app.diagrams.net" modified="2020-12-10T11:34:50.367Z" agent="5.0 (Windows NT 10.0; Win64; x64) AppleWebKit/537.36 (KHTML, like Gecko) Chrome/86.0.4240.198 Safari/537.36" etag="_nTa09OQ5mFl8cqLCwPu" version="14.0.0" type="github">
  <diagram id="vYS1vsppYNnUihaeu6XZ" name="Page-1">
    <mxGraphModel dx="1609" dy="437" grid="1" gridSize="10" guides="1" tooltips="1" connect="1" arrows="1" fold="1" page="1" pageScale="1" pageWidth="827" pageHeight="1169" math="0" shadow="0">
      <root>
        <mxCell id="0" />
        <mxCell id="1" parent="0" />
        <mxCell id="GZZoLok28R63FYod4baP-7" value="" style="dashed=0;outlineConnect=0;html=1;align=center;labelPosition=center;verticalLabelPosition=bottom;verticalAlign=top;shape=mxgraph.webicons.github;gradientColor=#DFDEDE" vertex="1" parent="1">
          <mxGeometry x="393.8" y="20" width="102.4" height="102.4" as="geometry" />
        </mxCell>
        <mxCell id="GZZoLok28R63FYod4baP-8" value="" style="endArrow=none;html=1;strokeWidth=4;" edge="1" parent="1">
          <mxGeometry width="50" height="50" relative="1" as="geometry">
            <mxPoint x="-10" y="160" as="sourcePoint" />
            <mxPoint x="720" y="151" as="targetPoint" />
          </mxGeometry>
        </mxCell>
        <mxCell id="GZZoLok28R63FYod4baP-9" value="" style="ellipse;whiteSpace=wrap;html=1;" vertex="1" parent="1">
          <mxGeometry x="70" y="170" width="110" height="90" as="geometry" />
        </mxCell>
        <mxCell id="GZZoLok28R63FYod4baP-10" value="" style="ellipse;whiteSpace=wrap;html=1;" vertex="1" parent="1">
          <mxGeometry x="220" y="280" width="110" height="90" as="geometry" />
        </mxCell>
        <mxCell id="GZZoLok28R63FYod4baP-11" value="" style="ellipse;whiteSpace=wrap;html=1;" vertex="1" parent="1">
          <mxGeometry x="390" y="280" width="110" height="90" as="geometry" />
        </mxCell>
        <mxCell id="GZZoLok28R63FYod4baP-12" value="" style="endArrow=classic;html=1;strokeWidth=4;exitX=1;exitY=0.5;exitDx=0;exitDy=0;entryX=0;entryY=0.5;entryDx=0;entryDy=0;" edge="1" parent="1" source="GZZoLok28R63FYod4baP-9" target="GZZoLok28R63FYod4baP-10">
          <mxGeometry width="50" height="50" relative="1" as="geometry">
            <mxPoint x="410" y="250" as="sourcePoint" />
            <mxPoint x="460" y="200" as="targetPoint" />
          </mxGeometry>
        </mxCell>
        <mxCell id="GZZoLok28R63FYod4baP-13" value="" style="endArrow=classic;html=1;strokeWidth=4;exitX=1;exitY=0.5;exitDx=0;exitDy=0;entryX=0;entryY=0.5;entryDx=0;entryDy=0;" edge="1" parent="1" source="GZZoLok28R63FYod4baP-10" target="GZZoLok28R63FYod4baP-11">
          <mxGeometry width="50" height="50" relative="1" as="geometry">
            <mxPoint x="360" y="260" as="sourcePoint" />
            <mxPoint x="416" y="333" as="targetPoint" />
            <Array as="points">
              <mxPoint x="360" y="325" />
              <mxPoint x="380" y="325" />
            </Array>
          </mxGeometry>
        </mxCell>
        <mxCell id="GZZoLok28R63FYod4baP-18" value="" style="endArrow=classic;html=1;strokeWidth=4;exitX=0.5;exitY=0;exitDx=0;exitDy=0;" edge="1" parent="1" source="GZZoLok28R63FYod4baP-11" target="GZZoLok28R63FYod4baP-7">
          <mxGeometry width="50" height="50" relative="1" as="geometry">
            <mxPoint x="410" y="250" as="sourcePoint" />
            <mxPoint x="460" y="200" as="targetPoint" />
          </mxGeometry>
        </mxCell>
        <mxCell id="GZZoLok28R63FYod4baP-19" value="" style="ellipse;whiteSpace=wrap;html=1;" vertex="1" parent="1">
          <mxGeometry x="630" y="280" width="110" height="90" as="geometry" />
        </mxCell>
        <mxCell id="GZZoLok28R63FYod4baP-20" value="" style="endArrow=classic;html=1;strokeWidth=4;exitX=0.5;exitY=0;exitDx=0;exitDy=0;" edge="1" source="GZZoLok28R63FYod4baP-19" parent="1" target="GZZoLok28R63FYod4baP-7">
          <mxGeometry width="50" height="50" relative="1" as="geometry">
            <mxPoint x="650" y="250" as="sourcePoint" />
            <mxPoint x="685" y="122.39999999999998" as="targetPoint" />
            <Array as="points">
              <mxPoint x="590" y="200" />
            </Array>
          </mxGeometry>
        </mxCell>
        <mxCell id="GZZoLok28R63FYod4baP-21" value="&lt;span style=&quot;font-size: 24px&quot;&gt;push&lt;br&gt;&lt;/span&gt;" style="text;html=1;resizable=0;autosize=1;align=center;verticalAlign=middle;points=[];fillColor=none;strokeColor=none;rounded=0;" vertex="1" parent="1">
          <mxGeometry x="365" y="200" width="70" height="20" as="geometry" />
        </mxCell>
        <mxCell id="GZZoLok28R63FYod4baP-24" value="" style="endArrow=classic;html=1;strokeWidth=4;exitX=0.5;exitY=0;exitDx=0;exitDy=0;" edge="1" parent="1" source="GZZoLok28R63FYod4baP-19">
          <mxGeometry width="50" height="50" relative="1" as="geometry">
            <mxPoint x="445" y="280" as="sourcePoint" />
            <mxPoint x="445" y="200" as="targetPoint" />
            <Array as="points">
              <mxPoint x="520" y="190" />
            </Array>
          </mxGeometry>
        </mxCell>
        <mxCell id="GZZoLok28R63FYod4baP-25" value="&lt;span style=&quot;font-size: 24px&quot;&gt;git revert&lt;br&gt;&lt;/span&gt;" style="text;html=1;resizable=0;autosize=1;align=center;verticalAlign=middle;points=[];fillColor=none;strokeColor=none;rounded=0;" vertex="1" parent="1">
          <mxGeometry x="600" y="190" width="110" height="20" as="geometry" />
        </mxCell>
        <mxCell id="GZZoLok28R63FYod4baP-26" value="" style="endArrow=classic;html=1;strokeWidth=4;exitX=1;exitY=0.5;exitDx=0;exitDy=0;entryX=0;entryY=0.5;entryDx=0;entryDy=0;" edge="1" parent="1" source="GZZoLok28R63FYod4baP-10" target="GZZoLok28R63FYod4baP-11">
          <mxGeometry width="50" height="50" relative="1" as="geometry">
            <mxPoint x="330" y="325" as="sourcePoint" />
            <mxPoint x="390" y="325" as="targetPoint" />
            <Array as="points">
              <mxPoint x="350" y="325" />
              <mxPoint x="360" y="325" />
              <mxPoint x="380" y="325" />
            </Array>
          </mxGeometry>
        </mxCell>
        <mxCell id="GZZoLok28R63FYod4baP-27" value="" style="endArrow=classic;html=1;strokeWidth=4;exitX=1;exitY=0.5;exitDx=0;exitDy=0;entryX=0;entryY=0.5;entryDx=0;entryDy=0;" edge="1" parent="1" target="GZZoLok28R63FYod4baP-19">
          <mxGeometry width="50" height="50" relative="1" as="geometry">
            <mxPoint x="500" y="324.5" as="sourcePoint" />
            <mxPoint x="560" y="324.5" as="targetPoint" />
            <Array as="points">
              <mxPoint x="520" y="324.5" />
              <mxPoint x="530" y="324.5" />
              <mxPoint x="550" y="324.5" />
            </Array>
          </mxGeometry>
        </mxCell>
      </root>
    </mxGraphModel>
  </diagram>
</mxfile>
